# Blender v3.0.1 OBJ File: ''
# www.blender.org
mtllib untitled.mtl
o Cube
v 0.451826 -0.695311 0.563465
v 0.212750 2.903528 0.063553
v -0.956019 -0.875080 2.051775
v -0.737344 -0.601654 0.034044
v 2.232857 -0.901799 -0.301039
v 0.372928 -0.653305 -0.806113
v -0.115872 -2.420601 -0.129556
v -1.392710 -0.643722 -1.880293
vt 0.000000 0.000000
vt 0.000000 0.000000
vt 0.000000 0.000000
vt 0.000000 0.000000
vt 0.000000 0.000000
vt 0.000000 0.000000
vt 0.000000 0.000000
vt 0.000000 0.000000
vn -0.8901 -0.3322 0.3120
vn -0.3981 0.1002 0.9119
vn 0.3485 -0.4459 0.8245
vn -0.9404 -0.3084 -0.1437
vn -0.5900 0.1666 -0.7900
vn 0.9967 0.0585 -0.0556
vn 0.1909 -0.3965 -0.8980
vn 0.4686 -0.4259 -0.7740
vn 0.6736 -0.4555 0.5821
vn 0.0174 0.9905 0.1361
vn 0.1262 0.9917 0.0231
vn 0.0237 0.9993 -0.0301
usemtl Material
s off
f 4/1/1 8/2/1 7/3/1
f 1/4/2 2/5/2 4/1/2
f 7/3/3 5/6/3 1/4/3
f 4/1/4 7/3/4 3/7/4
f 4/1/5 2/5/5 6/8/5
f 6/8/6 2/5/6 1/4/6
f 7/3/7 6/8/7 5/6/7
f 7/3/8 8/2/8 6/8/8
f 7/3/9 1/4/9 3/7/9
f 1/4/10 4/1/10 3/7/10
f 6/8/11 1/4/11 5/6/11
f 4/1/12 6/8/12 8/2/12
o Cube.001
v 0.451826 -0.695311 0.563465
v -0.059078 -1.148434 -0.126243
v -0.956019 -0.875080 2.051775
v -0.737344 -0.601654 0.034044
v 2.232857 -0.901799 -0.301039
v 0.372928 -0.653305 -0.806113
v -0.115872 -2.420601 -0.129556
v -1.392710 -0.643722 -1.880293
vt 0.000000 0.000000
vt 0.000000 0.000000
vt 0.000000 0.000000
vt 0.000000 0.000000
vt 0.000000 0.000000
vt 0.000000 0.000000
vt 0.000000 0.000000
vt 0.000000 0.000000
vn -0.8901 -0.3322 0.3120
vn 0.3542 0.6394 -0.6824
vn 0.3485 -0.4459 0.8245
vn -0.9404 -0.3084 -0.1437
vn 0.5453 0.4737 0.6915
vn -0.7080 0.7034 0.0624
vn 0.1909 -0.3965 -0.8980
vn 0.4686 -0.4259 -0.7740
vn 0.6736 -0.4555 0.5821
vn 0.0174 0.9905 0.1361
vn 0.1262 0.9917 0.0231
vn 0.0237 0.9993 -0.0301
usemtl Material.001
s off
f 12/9/13 16/10/13 15/11/13
f 9/12/14 10/13/14 12/9/14
f 15/11/15 13/14/15 9/12/15
f 12/9/16 15/11/16 11/15/16
f 12/9/17 10/13/17 14/16/17
f 14/16/18 10/13/18 9/12/18
f 15/11/19 14/16/19 13/14/19
f 15/11/20 16/10/20 14/16/20
f 15/11/21 9/12/21 11/15/21
f 9/12/22 12/9/22 11/15/22
f 14/16/23 9/12/23 13/14/23
f 12/9/24 14/16/24 16/10/24
